<svg xmlns="http://www.w3.org/2000/svg" width="745" height="468" viewBox="0 0 745 468">
    <g fill="none" fill-rule="evenodd">
        <path fill="#F2F2F2" fill-rule="nonzero" d="M140.873 313.45l-3.966-2.461c-.378-.233-.75-.485-1.128-.724 17.383-2.985 30.376-17.591 31.29-35.175.914-17.583-10.495-33.453-27.476-38.217l.195 15.519-8.542-16.885h-.107c-20.817-.964-38.478 15.093-39.455 35.872-.038.723 0 1.428 0 2.14-2.97-3.386-5.674-7.018-7.458-10.995-3.613-8.049-3.682-17.168-3.398-28.257.567-21.963 1.519-44.103 2.755-66.167 18.428-2.048 32.634-17.157 33.515-35.645.05-1.152.032-2.285 0-3.417a5.403 5.403 0 0 0-.044-.844 36.78 36.78 0 0 0-.347-3.247 2.861 2.861 0 0 0-.094-.516c-.152-.906-.34-1.8-.555-2.681-.082-.334-.164-.66-.252-.988a40.041 40.041 0 0 0-.896-2.845c-.113-.308-.24-.629-.365-.918a33.884 33.884 0 0 0-.864-2.033c-.164-.353-.322-.705-.492-1.051-.05-.088-.082-.183-.132-.27-8.223-16.201-26.856-24.236-44.31-19.107L69 114.739l-8.448-16.69c-14.245 8.15-21.536 24.593-18 40.598h-.076c.057.271.14.53.202.793.12.498.246.988.385 1.48.183.629.378 1.258.586 1.887.158.466.309.925.486 1.385.258.667.548 1.315.838 1.963.17.378.322.768.504 1.14.48.973 1 1.923 1.564 2.85.195.327.416.63.63.95.404.63.807 1.26 1.261 1.844.272.372.562.73.845 1.09.416.522.839 1.038 1.261 1.535.31.358.63.705.952 1.044.467.491.94.963 1.431 1.423.328.308.63.629.99.919.555.497 1.135.962 1.721 1.422.297.233.587.472.89.698.895.63 1.817 1.259 2.767 1.888.177.107.372.195.548.302.801.466 1.608.913 2.44 1.316.36.176.725.333 1.091.497.681.302 1.368.598 2.074.868l1.261.44c.694.234 1.4.454 2.112.63.416.113.839.233 1.261.334.77.182 1.557.333 2.352.472l.151.031c-.517 9.31-.98 18.622-1.387 27.936a37.701 37.701 0 0 0-22.65-19.458 37.781 37.781 0 0 0-29.722 3.096l6.67 18.25-13.725-13.153A37.518 37.518 0 0 0 .046 210.542a36.752 36.752 0 0 0 .959 10.377c3.531 15.035 15.9 26.394 31.203 28.656 15.304 2.263 30.44-5.03 38.185-18.398 0 .944-.063 1.888-.088 2.839-.252 9.78-.567 21.95 4.319 32.819 3.31 7.363 8.63 13.348 13.87 18.71a233.511 233.511 0 0 0 10.61 10.132 37.869 37.869 0 0 0 13.631 11.328 231.355 231.355 0 0 0 18.567 12.907l3.998 2.48c3.593 2.222 7.275 4.506 10.881 6.879-.63-.063-1.26-.133-1.891-.164-16.418-.764-31.445 9.162-37.16 24.544l23.58 19.15-25.937-6.004a37.675 37.675 0 0 0 17.703 31.865 37.818 37.818 0 0 0 36.447 2.018l-1.753 2.171a807.33 807.33 0 0 0-3.436 4.292C138.39 426.546 134.121 444.96 141.718 459l9.242-4.978c-7.395-13.669 3.726-31.164 11.014-40.378a618.216 618.216 0 0 1 3.38-4.216c9.803-12.159 20.912-25.94 20.641-42.845-.429-25.481-25.18-40.812-45.122-53.134z"/>
        <path fill="#76C8EC" fill-rule="nonzero" d="M569.285 274.628l4.942-3.067c.472-.295.932-.628 1.405-.905-21.695-3.701-37.919-21.904-39.06-43.822-1.14-21.918 13.107-41.697 34.301-47.618l-.245 19.339 10.658-21.036h.126c25.97-1.205 48.005 18.809 49.22 44.705.044.899 0 1.779 0 2.665 3.712-4.217 7.078-8.742 9.303-13.695 4.513-10.056 4.6-21.369 4.242-35.196-.706-27.37-1.891-54.95-3.436-82.44-22.986-2.55-40.706-21.379-41.8-44.416-.064-1.433-.045-2.847 0-4.255 0-.352.018-.705.056-1.055.088-1.364.22-2.715.422-4.042.032-.22.089-.433.12-.628.193-1.131.427-2.246.7-3.344.1-.408.201-.823.309-1.257a48.065 48.065 0 0 1 1.115-3.538c.139-.39.303-.76.454-1.144.34-.861.7-1.703 1.084-2.514.202-.434.397-.874.63-1.307.05-.107.101-.227.158-.333C614.235 5.53 637.485-4.482 659.253 1.923l-.315 25.14 10.538-20.79c17.773 10.149 26.866 30.64 22.445 50.581h.057c-.076.333-.183.629-.258.987a41.079 41.079 0 0 1-.48 1.841c-.22.786-.472 1.553-.73 2.32-.196.578-.385 1.156-.63 1.728-.322.83-.682 1.64-1.047 2.445-.215.471-.404.955-.63 1.42a50.838 50.838 0 0 1-1.948 3.551c-.24.409-.517.792-.775 1.188a47.44 47.44 0 0 1-1.563 2.294c-.34.465-.7.905-1.053 1.358-.517.628-1.04 1.294-1.595 1.916-.382.42-.78.853-1.191 1.301-.574.629-1.172 1.195-1.777 1.767-.41.39-.813.779-1.261 1.15-.7.628-1.418 1.194-2.156 1.766-.365.289-.724.597-1.103.873a47.93 47.93 0 0 1-3.454 2.32c-.22.131-.46.245-.687.377a44.16 44.16 0 0 1-3.038 1.64c-.447.22-.907.409-1.361.628-.851.384-1.708.748-2.584 1.081a47.193 47.193 0 0 1-4.185 1.358c-.524.145-1.047.29-1.582.421a49.3 49.3 0 0 1-2.931.585l-.196.037a2604.541 2604.541 0 0 1 1.734 34.813 46.994 46.994 0 0 1 28.255-24.237 47.152 47.152 0 0 1 37.068 3.873l-8.313 22.727 17.112-16.385a46.706 46.706 0 0 1 15.323 32.38 45.719 45.719 0 0 1-1.192 12.928c-4.403 18.735-19.832 32.89-38.92 35.71-19.09 2.819-37.97-6.269-47.632-22.926 0 1.175.082 2.363.114 3.538.315 12.187.706 27.353-5.383 40.89-4.128 9.183-10.772 16.63-17.34 23.311a282.777 282.777 0 0 1-13.235 12.627 47.203 47.203 0 0 1-17.018 14.097 290.558 290.558 0 0 1-23.157 16.09l-4.986 3.086c-4.481 2.765-9.07 5.612-13.576 8.566.794-.075 1.575-.163 2.382-.201 20.461-.942 39.187 11.411 46.32 30.557l-29.41 23.883 32.354-7.473c-.023 16.133-8.348 31.126-22.048 39.707a47.219 47.219 0 0 1-45.444 2.566c.731.905 1.456 1.81 2.187 2.709 1.443 1.791 2.887 3.576 4.292 5.349 19.136 24.165 24.462 47.137 14.982 64.609l-11.521-6.203c9.22-17.033-4.652-38.829-13.747-50.28a852.676 852.676 0 0 0-4.21-5.254c-12.228-15.147-26.088-32.318-25.748-53.379.53-31.808 31.44-50.908 56.279-66.256z"/>
        <ellipse cx="367.5" cy="450.5" fill="#032C3E" fill-rule="nonzero" rx="323.5" ry="17.5"/>
        <ellipse cx="366.5" cy="445" fill="#032C3E" fill-rule="nonzero" opacity=".2" rx="289.5" ry="14"/>
        <path fill="#EBF9FF" fill-rule="nonzero" d="M643 108.541V441.46a4.54 4.54 0 0 1-4.537 4.541H97.53a4.529 4.529 0 0 1-3.206-1.33A4.544 4.544 0 0 1 93 441.458V108.54c0-1.203.475-2.359 1.325-3.21A4.529 4.529 0 0 1 97.53 104h540.913a4.535 4.535 0 0 1 4.556 4.541z"/>
        <path fill="#032C3E" fill-rule="nonzero" d="M643 106.978V117H93v-10.022c0-1.645 1.355-2.978 3.027-2.978h543.946c1.672 0 3.027 1.333 3.027 2.978z"/>
        <circle cx="103" cy="111" r="3" fill="#FFF" fill-rule="nonzero"/>
        <circle cx="112" cy="111" r="3" fill="#FFF" fill-rule="nonzero"/>
        <circle cx="120" cy="111" r="3" fill="#FFF" fill-rule="nonzero"/>
        <path fill="#76C8EC" fill-rule="nonzero" d="M284 151h167v9H284zM145 240h129v151H145zM303 240h129v151H303zM590 391H461V240h129z"/>
        <path fill="#A0616A" fill-rule="nonzero" d="M203.68 317.131c-.384 2.265-2.635 3.689-4.759 4.573-2.124.885-4.5 1.618-5.862 3.469-1.834 2.509-1.065 6.103.63 8.706 1.923 2.986 4.835 5.188 7.684 7.32a13.883 13.883 0 0 0 4.16 2.416c1.157.295 2.35.421 3.543.376a64.903 64.903 0 0 0 11.453-1.022c4.847-.879 10.028-2.635 12.607-6.825 2.092-3.431 1.96-7.716 1.758-11.73-2.282-.195-4.324-1.43-6.265-2.628-2.295-1.418-4.772-3.068-5.516-5.646-.781-2.703.467-6.04-1.393-8.154-1.26-1.43-3.397-1.6-5.3-1.65a319.306 319.306 0 0 0-7.748-.107c-1.777 0-5.748-.74-7.21.44-2.692 2.138 2.703 7.59 2.218 10.462z"/>
        <path fill="#FFCBBE" fill-rule="nonzero" d="M203.68 317.131c-.384 2.265-2.635 3.689-4.759 4.573-2.124.885-4.5 1.618-5.862 3.469-1.834 2.509-1.065 6.103.63 8.706 1.923 2.986 4.835 5.188 7.684 7.32a13.883 13.883 0 0 0 4.16 2.416c1.157.295 2.35.421 3.543.376a64.903 64.903 0 0 0 11.453-1.022c4.847-.879 10.028-2.635 12.607-6.825 2.092-3.431 1.96-7.716 1.758-11.73-2.282-.195-4.324-1.43-6.265-2.628-2.295-1.418-4.772-3.068-5.516-5.646-.781-2.703.467-6.04-1.393-8.154-1.26-1.43-3.397-1.6-5.3-1.65a319.306 319.306 0 0 0-7.748-.107c-1.777 0-5.748-.74-7.21.44-2.692 2.138 2.703 7.59 2.218 10.462z" opacity=".696"/>
        <circle cx="212.5" cy="296.5" r="18.5" fill="#FFCBBE" fill-rule="nonzero"/>
        <path fill="#F2F2F2" fill-rule="nonzero" d="M250.79 341.534a8.029 8.029 0 0 1-1.035 3.161 5.4 5.4 0 0 1-.565.733c-1.037 1.145-2.512 1.897-3.85 2.7-3.768 2.308-7.994 5.31-8.698 9.705a33.444 33.444 0 0 1-.948 4.046c-.88 3.01-2.028 5.969-2.7 8.978a20.54 20.54 0 0 0-.56 5.33c.022.56.072 1.12.151 1.675.597 4.261 2.77 8.086 5.326 11.722.276.392.552.784.835 1.17l.182.246h-60.124c.1-.386.201-.765.295-1.15a1.82 1.82 0 0 1 .044-.178c.597-2.409 1.118-4.83 1.482-7.27.34-2.168.527-4.356.56-6.55 0-1.897.414-3.996 1.99-5.058.107-.386.207-.778.308-1.164a36.37 36.37 0 0 0-.088-17.468c-.088-.354-.189-.708-.283-1.062-.044-.158-.094-.316-.138-.475a52.074 52.074 0 0 1-1.331-5.127c-.37-2.067-.452-4.268-1.545-6.05-1.093-1.783-2.996-2.827-4.685-4.034a10.765 10.765 0 0 1-2.217-2.03 5 5 0 0 1-1.193-2.908 4.328 4.328 0 0 1 .07-.948 7.29 7.29 0 0 1 1.914-3.446c3.819-4.23 9.653-6.006 15.386-6.082.886 0 1.765 0 2.638.076a7.387 7.387 0 0 1 2.958.67 4.497 4.497 0 0 1 1.475 1.227 7.376 7.376 0 0 1 1.256 2.39c.226.697.394 1.411.503 2.136.352 2.257.427 4.66 1.608 6.607 2.141 3.528 7.02 4.173 11.052 3.408 7.286-1.44 13.555-6.076 17.1-12.645.376-.788.795-1.554 1.256-2.295.245-.371.531-.713.854-1.018a34.937 34.937 0 0 1 15.305 6.955 16.78 16.78 0 0 1 3.63 3.793c1.883 2.997 2.31 6.74 1.783 10.23z"/>
        <path fill="#A0616A" fill-rule="nonzero" d="M252.721 379.664a17.873 17.873 0 0 1-2.32 4.983 11.991 11.991 0 0 1-2.682 3.436c-2.245 1.769-5.35 1.73-8.221 1.566h-.228l-1.423-.082-8.164-.489a45.911 45.911 0 0 1-6.45-.69 26.326 26.326 0 0 1-1.695-.406c-3.162-.85-6.255-2.118-9.524-2.302-.949-.057-1.898 0-2.865 0h-.266c-.634 0-1.268-.042-1.897-.126-1.035-.152-2.053-.482-3.109-.532-2.707-.14-5.097 1.49-7.405 2.973l-.633.393a28.425 28.425 0 0 1-5.236 2.612h-10.968a3.951 3.951 0 0 1-1.006-1.154 2.204 2.204 0 0 1-.088-.171 5.795 5.795 0 0 1 0-4.888 9.568 9.568 0 0 1 1.6-2.41 22.153 22.153 0 0 1 2.314-2.18c4.263-3.563 9.164-6.568 14.615-7.608.38-.07.765-.133 1.145-.184a50.631 50.631 0 0 1 8.22-.272l2.575.05 10.782.222h.297c4.332.083 8.886.115 12.8-1.616a15.03 15.03 0 0 0 1.455-.748 2.74 2.74 0 0 0 1.005-.875 3.03 3.03 0 0 0 .297-1.648l-.038-5.706-.075-11c0-2.7-.017-5.4-.051-8.096a5.568 5.568 0 0 1 1.55-4.609c1.574-1.984 5.413-8.99 8.132-9.104.483-.027.96.107 1.36.38 2.314 1.548 2.327 7.412 2.384 9.39a222.972 222.972 0 0 0 3.447 33.176c.467 2.529.973 5.179.366 7.715z"/>
        <path fill="#FFCBBE" fill-rule="nonzero" d="M252.721 379.664a17.873 17.873 0 0 1-2.32 4.983 11.991 11.991 0 0 1-2.682 3.436c-2.245 1.769-5.35 1.73-8.221 1.566h-.228l-1.423-.082-8.164-.489a45.911 45.911 0 0 1-6.45-.69 26.326 26.326 0 0 1-1.695-.406c-3.162-.85-6.255-2.118-9.524-2.302-.949-.057-1.898 0-2.865 0h-.266c-.634 0-1.268-.042-1.897-.126-1.035-.152-2.053-.482-3.109-.532-2.707-.14-5.097 1.49-7.405 2.973l-.633.393a28.425 28.425 0 0 1-5.236 2.612h-10.968a3.951 3.951 0 0 1-1.006-1.154 2.204 2.204 0 0 1-.088-.171 5.795 5.795 0 0 1 0-4.888 9.568 9.568 0 0 1 1.6-2.41 22.153 22.153 0 0 1 2.314-2.18c4.263-3.563 9.164-6.568 14.615-7.608.38-.07.765-.133 1.145-.184a50.631 50.631 0 0 1 8.22-.272l2.575.05 10.782.222h.297c4.332.083 8.886.115 12.8-1.616a15.03 15.03 0 0 0 1.455-.748 2.74 2.74 0 0 0 1.005-.875 3.03 3.03 0 0 0 .297-1.648l-.038-5.706-.075-11c0-2.7-.017-5.4-.051-8.096a5.568 5.568 0 0 1 1.55-4.609c1.574-1.984 5.413-8.99 8.132-9.104.483-.027.96.107 1.36.38 2.314 1.548 2.327 7.412 2.384 9.39a222.972 222.972 0 0 0 3.447 33.176c.467 2.529.973 5.179.366 7.715z" opacity=".788"/>
        <path fill="#564036" fill-rule="nonzero" d="M199.85 268.073c-1.612.238-3.394.664-4.269 2.016-.685 1.052-.634 2.386-.868 3.613a8.002 8.002 0 0 1-3.12 4.927c-1.332.97-2.943 1.516-4.319 2.424-1.376.907-2.594 2.391-2.41 4.02.159 1.42 1.307 2.504 1.846 3.844.995 2.442-.178 5.165-1.269 7.57-1.09 2.404-2.118 5.234-.868 7.557 1.325 2.448 4.743 3.375 5.707 5.973 1.198 3.131-1.903 6.468-1.503 9.806.342 2.742 3.082 4.702 5.853 5.103 1.325.187 2.797.056 3.805-.814s1.325-2.292 1.37-3.613c.17-5.097-2.765-9.774-3.621-14.808-.28-1.66-.317-3.438.463-4.934.494-.946 1.268-1.722 1.7-2.705.855-2.047-.115-4.52.805-6.543a17.133 17.133 0 0 1 1.794-2.505c.59-.845.983-1.966.52-2.886a10.154 10.154 0 0 1 3.773 4.233c1.199-.238 1.167-2.78 2.34-2.417.33.106.52.45.736.72a3.332 3.332 0 0 0 3.513.914 6.903 6.903 0 0 0 3.095-2.198l2.004 2.455a2.291 2.291 0 0 1 2.2-1.378c.93.063 1.827.368 2.6.883 3.805 2.248 6.658 6.85 5.2 10.982-.634 1.766-1.903 3.212-2.752 4.89-.85 1.678-1.066 3.933.291 5.235.307.246.6.51.876.789.995 1.158.367 2.924.665 4.383.527 2.686 3.736 3.756 6.437 4.383 1.902.425 4.166.745 5.498-.627 1.458-1.502.805-3.963-.076-5.854-.882-1.89-1.903-4.076-.958-5.93.945-1.853 3.716-2.504 4.712-4.439 1.268-2.46-.97-5.159-1.864-7.776-1.224-3.582.14-7.601-.863-11.27a15.668 15.668 0 0 0-2.803-5.085c-2.961-3.932-6.512-7.545-10.913-9.824-4.16-2.154-8.352-2.504-12.937-1.96-4.115.514-8.263.238-12.39.846z"/>
        <path fill="#F2F2F2" fill-rule="nonzero" d="M236.027 350.995a1.543 1.543 0 0 1-.731-1.014 286.431 286.431 0 0 1-3.968-12.017 4.684 4.684 0 0 1-.3-2.238 4.347 4.347 0 0 1 1.705-2.327 25.425 25.425 0 0 1 6.964-4.093c1.832-.72 4.534-2.002 6.36-.835 2.264 1.447-.153 5.1-.98 7.013a72.798 72.798 0 0 1-3.816 7.65c-.432.765-4.655 8.09-5.234 7.86z"/>
        <path fill="#FFCBBE" fill-rule="nonzero" d="M239.477 389.675a3.803 3.803 0 0 1-.594.85 1.94 1.94 0 0 1-.228.228 2.652 2.652 0 0 1-.284.247h-10.992a28.413 28.413 0 0 1-5.234-2.611l-.632-.393c-2.307-1.483-4.696-3.112-7.401-2.972-1.056.05-2.074.38-3.11.532-.629.085-1.262.127-1.897.127h-.265c-.954 0-1.896-.045-2.863 0-3.268.184-6.353 1.451-9.52 2.3-.562.152-1.124.292-1.693.406a45.88 45.88 0 0 1-6.447.69l-9.583.571h-.227c-2.864.165-5.967.203-8.217-1.565a11.987 11.987 0 0 1-2.68-3.435 17.867 17.867 0 0 1-2.32-4.982c-.632-2.535-.101-5.184.36-7.75a223.815 223.815 0 0 0 3.433-33.171c.056-1.984.07-7.865 2.395-9.393.262-.182.563-.299.879-.342.155-.016.312-.016.467 0 2.718.114 6.555 7.117 8.129 9.101a5.567 5.567 0 0 1 1.548 4.607c0 2.603-.016 5.21-.05 7.82v.356c-.03 5.552-.065 11.101-.108 16.649a3.03 3.03 0 0 0 .298 1.647c.09.149.2.283.328.4.21.18.436.34.677.475 4.203 2.484 9.367 2.459 14.246 2.364h.298l10.776-.222 2.573-.05a50.588 50.588 0 0 1 8.217.272c.38.05.765.114 1.144.184a29.72 29.72 0 0 1 11.567 5.235 48.768 48.768 0 0 1 3.072 2.37c1.555 1.267 3.084 2.738 3.912 4.588.723 1.54.732 3.32.026 4.867z"/>
        <path fill="#F2F2F2" fill-rule="nonzero" d="M182.978 350.995c.374-.221.639-.589.731-1.014a286.363 286.363 0 0 0 3.97-12.017 4.76 4.76 0 0 0 .293-2.238 4.347 4.347 0 0 0-1.705-2.327 25.27 25.27 0 0 0-6.96-4.093c-1.833-.72-4.53-2.002-6.362-.835-2.265 1.447.146 5.1.98 7.013a71.527 71.527 0 0 0 3.817 7.65c.432.765 4.657 8.09 5.236 7.86z"/>
        <path fill="#032C3E" fill-rule="nonzero" d="M523.463 279.706c3.775-.92 6.706 5.332 10.506 4.589 2.087-.406 3.698-2.882 5.81-2.698 2.405.21 3.433 3.498 4.664 5.903 2.138 4.164 6.458 6.684 10.62 6.183 1.306-1.727 1.059-4.38.393-6.538-.666-2.158-1.681-4.253-1.707-6.55-.031-3.04 1.637-6.405.127-8.887-1.16-1.904-3.533-2.056-5.278-3.23-1.364-.915-2.322-2.444-3.464-3.695a11.449 11.449 0 0 0-7.06-3.713c-2.246-.254-4.505.229-6.725.71l-10.379 2.248c-.604.07-1.17.33-1.617.743a5.594 5.594 0 0 0-.838 2.126c-.983 3.224-4.066 4.735-6.585 6.525-2.518 1.79-4.91 5.332-3.52 8.347.786 1.707 2.638 2.76 2.835 4.678.171 1.714-1.066 3.116-2.074 4.386-4.283 5.37 5.316 8.163 7.612 4.52 2.557-4.012 1.282-14.327 6.68-15.647z"/>
        <path fill="#A0616A" fill-rule="nonzero" d="M517.63 313.614c-.907 1.16-2.088 2.125-2.816 3.404a7.7 7.7 0 0 0-.421 5.874 22.034 22.034 0 0 0 2.726 5.392 31.4 31.4 0 0 0 4.79 6.269 11.734 11.734 0 0 0 7.023 3.423c2.841.207 5.587-.947 8.16-2.157a8.957 8.957 0 0 0 2.944-1.88 8.91 8.91 0 0 0 1.43-2.552l2.215-5.21a14.163 14.163 0 0 0 1.277-4c.23-2.163-.536-4.3-1.277-6.35l-4.054-10.953a3.683 3.683 0 0 0-.97-1.661 3.694 3.694 0 0 0-1.495-.627 44.103 44.103 0 0 0-7.834-1.254c-1.967-.132-6.43-.815-8.148.276-1.577 1.01-.92 3.58-1.104 5.241a13.12 13.12 0 0 1-2.446 6.765z"/>
        <path fill="#FFCBBE" fill-rule="nonzero" d="M517.63 313.614c-.907 1.16-2.088 2.125-2.816 3.404a7.7 7.7 0 0 0-.421 5.874 22.034 22.034 0 0 0 2.726 5.392 31.4 31.4 0 0 0 4.79 6.269 11.734 11.734 0 0 0 7.023 3.423c2.841.207 5.587-.947 8.16-2.157a8.957 8.957 0 0 0 2.944-1.88 8.91 8.91 0 0 0 1.43-2.552l2.215-5.21a14.163 14.163 0 0 0 1.277-4c.23-2.163-.536-4.3-1.277-6.35l-4.054-10.953a3.683 3.683 0 0 0-.97-1.661 3.694 3.694 0 0 0-1.495-.627 44.103 44.103 0 0 0-7.834-1.254c-1.967-.132-6.43-.815-8.148.276-1.577 1.01-.92 3.58-1.104 5.241a13.12 13.12 0 0 1-2.446 6.765z" opacity=".674"/>
        <circle cx="531.5" cy="293.5" r="17.5" fill="#FFCBBE" fill-rule="nonzero"/>
        <path fill="#3C354C" fill-rule="nonzero" d="M570 337.11c.037 4.79-1.813 9.405-3.727 13.794-1.914 4.389-4.346 8.721-6.216 13.23-.151.363-.297.733-.442 1.103a299.877 299.877 0 0 0-8.54 25.136l-.183.627h-54.258c2.476-9.405 4.598-18.81-1.34-25.299-.182-.2-.366-.408-.543-.627-3.884-4.646-5.627-10.985-10.245-14.935-1.061-.909-2.293-1.712-2.95-2.947a5.33 5.33 0 0 1-.556-2.445c-.004-.746.043-1.492.14-2.232.454-4.076 1.042-8.352 3.518-11.637a17.27 17.27 0 0 1 4.01-3.7 32.123 32.123 0 0 1 11.187-4.959c4.523-1.028 9.513-1.178 13.202-3.981.776-.71 1.622-1.34 2.526-1.881l.253-.107a2.644 2.644 0 0 1 2.722.289c.478.528.794 1.18.91 1.88.67 2.433 1.341 4.866 2.015 7.299a7.431 7.431 0 0 0 1.522 3.285c1.788 1.844 5.205 1.624 6.594 3.762.834 1.298 3.026-.213 3.98-1.417a53.119 53.119 0 0 0 5.969-9.367 15.026 15.026 0 0 1 2.21-3.655 5.01 5.01 0 0 1 2.439-1.468c.459-.112.937-.125 1.402-.037 1.364.276 2.362 1.392 3.29 2.42a73.815 73.815 0 0 0 19.418 15.33 3.21 3.21 0 0 1 1.42 1.166 2.4 2.4 0 0 1 .24 1.01c.023.12.033.241.033.363z"/>
        <path fill="#032C3E" fill-rule="nonzero" d="M525.92 279.448c2.913-.63 5.172 3.557 8.103 3.06 1.61-.265 2.856-1.89 4.479-1.795 1.855.139 2.648 2.33 3.598 3.93a8.697 8.697 0 0 0 8.177 4.124c1.007-1.152.818-2.915.302-4.357-.515-1.442-1.302-2.84-1.32-4.364 0-2.034 1.257-4.276.1-5.932-.893-1.26-2.724-1.373-4.07-2.154-1.05-.63-1.786-1.63-2.673-2.462a9.3 9.3 0 0 0-5.442-2.475 18.49 18.49 0 0 0-5.183.473l-8.001 1.498a2.364 2.364 0 0 0-1.258.492 3.473 3.473 0 0 0-.63 1.416c-.76 2.154-3.145 3.149-5.076 4.352-1.931 1.202-3.774 3.558-2.717 5.566.629 1.14 2.031 1.839 2.182 3.149.139 1.14-.817 2.078-1.597 2.922-3.297 3.576 4.101 5.44 5.881 3.01 1.97-2.695.981-9.572 5.146-10.453z"/>
        <path fill="#3C354C" fill-rule="nonzero" d="M577.975 391h-14.44c.235-6.053-2.173-12.2-2.469-18.372-.111-2.319.08-4.676-.377-6.95a15.51 15.51 0 0 0-.463-1.75c-.364-1.169-.808-2.319-1.154-3.494-1.148-3.923-1.105-8.093-1.05-12.187.066-4.52.136-9.034.21-13.545 0-1.175-.34-2.907.704-3.4 2.352-1.111 4.797 1.094 6.958 2.528 1.296.884 2.778 1.58 4.037 2.527.75.529 1.401 1.192 1.92 1.958a11.136 11.136 0 0 1 1.278 3.406 320.465 320.465 0 0 1 4.569 20.678 68.59 68.59 0 0 1 1.234 9.161c.377 6.47-.938 12.996-.957 19.44zM487.027 384.012c-.634 1.53-1.32 3.136-1.225 4.805a7.4 7.4 0 0 0 .508 2.183h-13.449a48.555 48.555 0 0 1-1.523-6.9c-.635-4.542-.286-9.165.31-13.72a49.576 49.576 0 0 1 2.33-10.394c1.561-4.322 4.03-8.237 6.131-12.302.495-.947.946-2.013 1.473-2.954 1.13-2.064 2.59-3.582 5.496-2.196 7.23 3.444 10.333 15.507 8.32 22.533a.178.178 0 0 1 0 .057 34.54 34.54 0 0 1-2.144 5.187 326.748 326.748 0 0 0-6.227 13.7z"/>
        <path fill="#302F39" fill-rule="nonzero" d="M370.193 271.209a6.441 6.441 0 0 1 3.414 2.87c.58 1.195.561 2.592.957 3.863.835 2.674 3.35 4.426 4.912 6.765 2.118 3.16 2.367 7.188 2.22 10.981-.146 3.794-.638 7.663.32 11.349.452 1.795 1.224 3.502 1.537 5.33.376 2.212.064 4.526.638 6.701.504 1.979 1.684 3.711 2.845 5.393l4.964 7.188a57.705 57.705 0 0 1-6.552-1.953 11.638 11.638 0 0 0 3.54 5.304l-3.585-4.3a10.245 10.245 0 0 0-2.673-2.528c-1.314-.74-2.871-.853-4.351-1.157-2.84-.569-5.685-2.01-7.075-4.546-1.857-3.376-.638-7.618-1.704-11.323-.76-2.706-2.635-4.937-3.924-7.428-2.928-5.646-2.75-12.303-3.668-18.588-.396-2.668-.995-5.317-1.008-8.016 0-1.992.198-5.772 2.303-6.79 1.825-.854 5.193.17 6.89.885z"/>
        <path fill="#FFC1C7" fill-rule="nonzero" d="M371.7 315.638c.297 3.297.986 7.187 3.995 8.57 1.7.783 3.68.493 5.526.796 3.483.562 6.322 3.24 7.965 6.379 1.644 3.139 2.169 6.7 2.529 10.212.474 4.39.632 9.158-1.79 12.86-1.953 3-5.328 4.824-8.787 5.753a24.542 24.542 0 0 1-20.463-3.79c-2.864-2.078-5.229-4.755-7.53-7.433-5.013-5.83-10.058-12.221-11.088-19.838-.12-.865-.108-1.895.632-2.425a2.651 2.651 0 0 1 1.612-.322l4.805.088c1.22 0 2.598 0 3.426-.916.828-.915.778-2.065.746-3.158l-.367-13.926a2 2 0 0 1 .316-1.408 1.86 1.86 0 0 1 1.107-.474c2.649-.448 5.418 0 8.01-.72 2.465-.676 6.321-3.505 8.148-.6 1.53 2.432.974 7.548 1.208 10.352z"/>
        <path fill="#000" fill-rule="nonzero" d="M371.7 315.638c.297 3.297.986 7.187 3.995 8.57 1.7.783 3.68.493 5.526.796 3.483.562 6.322 3.24 7.965 6.379 1.644 3.139 2.169 6.7 2.529 10.212.474 4.39.632 9.158-1.79 12.86-1.953 3-5.328 4.824-8.787 5.753a24.542 24.542 0 0 1-20.463-3.79c-2.864-2.078-5.229-4.755-7.53-7.433-5.013-5.83-10.058-12.221-11.088-19.838-.12-.865-.108-1.895.632-2.425a2.651 2.651 0 0 1 1.612-.322l4.805.088c1.22 0 2.598 0 3.426-.916.828-.915.778-2.065.746-3.158l-.367-13.926a2 2 0 0 1 .316-1.408 1.86 1.86 0 0 1 1.107-.474c2.649-.448 5.418 0 8.01-.72 2.465-.676 6.321-3.505 8.148-.6 1.53 2.432.974 7.548 1.208 10.352z" opacity=".1"/>
        <circle cx="359.5" cy="296.5" r="18.5" fill="#FFC1C7" fill-rule="nonzero"/>
        <path fill="#6C63FF" fill-rule="nonzero" d="M400.64 375.23a16.943 16.943 0 0 1-.525 2.208 51.67 51.67 0 0 1-2.026 4.963 26.651 26.651 0 0 0-.797 2.038 21.338 21.338 0 0 0-.482 1.648c-.139.554-.304 1.302-.418 1.963-.17.975-.297 1.962-.398 2.95h-47.999a29.538 29.538 0 0 0-.272-7.234 47.365 47.365 0 0 0-2.963-9.593c-3.058-7.788-6.477-15.727-8.358-23.848v-.031a47.098 47.098 0 0 1-1.165-16.13c.038-.314.083-.628.127-.955a24.49 24.49 0 0 1 .462-2.428c.464-2.28 1.518-4.4 3.058-6.153 2.153-2.302 5.793-3.44 8.586-1.969 1.684.887 2.728 2.46 3.564 4.203.532 1.107.982 2.277 1.45 3.39a34.584 34.584 0 0 0 7.269 10.788 24.007 24.007 0 0 0 1.848 1.743 36.88 36.88 0 0 0 1.824 1.497c2.032 1.554 4.482 3.523 7.135 3.592 1.539.044 3.109 0 4.698 0 1.393 0 2.799-.057 4.185 0 2.97.057 6.332-.78 7.769-3.365.981-1.768.817-3.926.633-5.939-.146-1.572-.293-3.147-.443-4.724v-.245c-.101-1.139-.21-2.265-.317-3.403-.05-.548-.101-1.101-.158-1.649l-.114-1.22c.528-.059 1.06-.109 1.596-.15 2.4-.19 4.85-.146 6.913 1.018 1.963 1.101 3.166 2.994 3.939 5.14a20.53 20.53 0 0 1 .987 4.717c.71 7.14-.437 14.343-.044 21.502.253 5.183 1.355 10.561.437 15.676z"/>
        <path fill="#FFC1C7" fill-rule="nonzero" d="M412 391h-14.584c-.121-1.593-.217-3.187-.274-4.786-.05-1.103-.089-2.213-.108-3.316-.064-2.974-.038-5.94.076-8.898a21.426 21.426 0 0 0 9.382 2.58 17.238 17.238 0 0 1 3.18 4.86c.433.978.796 1.983 1.088 3.009a.083.083 0 0 1 0 .043A38.907 38.907 0 0 1 412 391z"/>
        <path fill="#6C63FF" fill-rule="nonzero" d="M410 380.866A70.68 70.68 0 0 0 393.417 383c-.717-3.44-.368-6.991 0-10.48l2.393-23.98c.175-1.776-.16-18.08 3.375-15.2 1.29 1.06 2.943 10.594 3.35 12.125.612 2.316 1.096 4.657 1.529 7.004.884 4.82 1.484 9.677 2.342 14.503.245 1.393 2.316 13.907 3.594 13.894z"/>
        <path fill="#302F39" fill-rule="nonzero" d="M366.968 273.477a3.134 3.134 0 0 0-.377-1.637 2.725 2.725 0 0 0-1.952-1.028c-2.63-.408-5.518.627-7.897-.552-1.256-.628-2.204-1.882-3.46-2.578-2.962-1.675-6.704 0-9.328 2.17a27.207 27.207 0 0 0-8.744 13.31c-1.168 4.027-1.639 8.737-4.978 11.29-1.381 1.054-3.14 1.637-4.175 3.042-.778 1.079-.96 2.465-1.105 3.763-.345 3.061-.627 6.197.17 9.17.628 2.215 1.789 4.222 2.51 6.398A16.976 16.976 0 0 1 323 334.501a5.515 5.515 0 0 0 4.08.708 3.491 3.491 0 0 1-.59 1.8c4.269-.138 7.979-4.29 12.154-3.38 3.189.69 4.965 3.976 7.344 6.21 3.064 2.878 7.822 4.083 11.67 2.376 3.848-1.706 6.184-6.56 4.551-10.437-1.883-4.39-7.59-6.153-9.58-10.512-1.537-3.38-.395-7.32-.727-11.014-.283-3.174-1.651-6.128-2.511-9.195-.86-3.067-1.13-6.574.627-9.246 1.846-2.835 5.38-3.939 8.594-5.018 7.238-2.333 8.632-6.002 8.356-13.316z"/>
        <path fill="#FFC1C7" fill-rule="nonzero" d="M362.565 339.835c.524-2.507 1.042-5.247.12-7.673-1.718-4.526-7.333-5.937-11.218-8.852a15.056 15.056 0 0 1-4.99-6.6c-.707-1.837-.802-4.389.935-5.317a4.241 4.241 0 0 1 2.166-.376c6.052.138 11.597 3.404 16.24 7.266 2.697 2.25 5.261 4.827 6.607 8.055a26.127 26.127 0 0 1 1.535 7.24l.947 8.15c.626 4.672.99 9.375 1.093 14.086.006 2.702-.164 5.401-.512 8.08-.24 1.882-.631 3.863-1.724 5.423-2.097 2.903-6.127 3.555-9.727 3.655a16.926 16.926 0 0 1-4.062-.257c-5.981-1.291-10.517-9.604-5.994-14.738 1.895-2.181 4.813-2.238 5.906-5.228 1.465-3.962 1.819-8.758 2.678-12.914z"/>
        <path fill="#6C63FF" fill-rule="nonzero" d="M357.792 340.692l4.63 7.609c.276.394.468.842.563 1.315.13.99-.62 1.869-1.19 2.673-3.99 5.484-2.975 13.024-1.772 19.711-12.996-4.144-22.495-15.392-24.455-28.959-.583-3.982-1.525-10.538 1.99-13.13 8.465-6.245 16.261 4.262 20.234 10.78z"/>
        <path fill="#302F39" fill-rule="nonzero" d="M381.334 325.159c-1.8-.304-3.697 0-5.385-.797-2.932-1.384-3.604-5.279-3.894-8.579 0-.303-.043-.632-.055-.992a26.97 26.97 0 0 1 3.407-3.041 16.532 16.532 0 0 1 3.48-1.574l3.254-1.176c.299.887.533 1.796.702 2.718.364 2.213.062 4.527.616 6.702.487 1.978 1.627 3.71 2.748 5.392L391 331a52.169 52.169 0 0 1-2.588-.702c-1.657-2.579-4.14-4.653-7.078-5.14z"/>
        <path stroke="#032C3E" stroke-width="2.688" d="M67.174 451c1.916-3.451-.255-7.686-2.74-10.761-2.483-3.076-5.497-6.264-5.433-10.204.096-5.638 6.194-8.964 11.066-11.958a53.466 53.466 0 0 0 9.935-7.836 14.307 14.307 0 0 0 3.053-4.01c1.008-2.204.983-4.71.919-7.121a512.605 512.605 0 0 0-1.22-24.11"/>
        <path fill="#00BFA5" fill-rule="nonzero" d="M91.985 373.605a9.001 9.001 0 0 0-4.5-7.394l-2.019 4 .065-4.842a9.14 9.14 0 0 0-2.977-.36 9 9 0 0 0-8.544 9.418 9 9 0 0 0 17.981-.822h-.006zM75.997 434.126a9 9 0 1 1 .437-7.264l-5.637 4.584L77 430.012a8.999 8.999 0 0 1-1.003 4.114zM71.51 416.977c-4.586.328-8.661-2.933-9.395-7.516s2.117-8.974 6.572-10.122l-.05 3.703 2.017-4.03a8.833 8.833 0 0 1 6.443 2.33 9.006 9.006 0 0 1 2.892 6.262 8.948 8.948 0 0 1-.381 3.069c-1.11 3.616-4.35 6.139-8.097 6.304zM93.367 402.994a9.036 9.036 0 0 1-8.718-5.647 8.977 8.977 0 0 1 2.392-10.08 9.062 9.062 0 0 1 10.333-1.16l-1.6 4.37 3.291-3.15a8.986 8.986 0 0 1 2.923 6.23 8.831 8.831 0 0 1-.226 2.488 9.026 9.026 0 0 1-8.395 6.949z"/>
        <path fill="#000" fill-rule="nonzero" d="M90.021 376.123c-1.995.227-3.934.882-5.935 1.012-2.001.13-4.2-.37-5.468-2.01-.677-.883-1.022-1.999-1.594-2.965a6.302 6.302 0 0 0-2.18-2.16c-1.422 3.132-1.025 6.845 1.025 9.565 2.049 2.72 5.39 3.97 8.61 3.221 3.218-.748 5.75-3.365 6.521-6.74a12.28 12.28 0 0 0-.979.077zM93.03 402.988c-3.022.163-5.903-1.37-7.584-4.032-1.68-2.663-1.913-6.065-.611-8.956a6.563 6.563 0 0 1 1.731 1.831c.614.981.988 2.117 1.707 3.014 1.344 1.669 3.634 2.214 5.716 2.117 2.081-.098 4.089-.728 6.14-.929.288 0 .576-.045.871-.052-.877 3.957-4.13 6.818-7.97 7.007zM72.106 415.99c-3.02.149-5.9-1.254-7.602-3.702a8.35 8.35 0 0 1-.731-8.288 7.049 7.049 0 0 1 1.857 1.73c.675.934 1.096 2.014 1.857 2.875 1.468 1.596 3.932 2.16 6.148 2.112 2.217-.049 4.229-.565 6.365-.729-1.072 3.435-4.233 5.838-7.894 6.001zM76 433.958c-2.004 4.295-7.261 6.219-11.74 4.297-4.48-1.922-6.487-6.96-4.483-11.255a8.665 8.665 0 0 1 1.953 1.671c.85.985 1.407 2.109 2.383 3.039 1.82 1.714 4.755 2.43 7.373 2.485a39.647 39.647 0 0 0 4.514-.237z" opacity=".1"/>
        <path fill="#032C3E" fill-rule="nonzero" d="M54 446.718s6.988-.211 9.094-1.69c2.107-1.479 10.722-3.237 11.264-.87.543 2.367 10.501 11.804 2.618 11.841-7.884.037-18.328-1.205-20.434-2.485-2.107-1.28-2.542-6.796-2.542-6.796z"/>
        <path fill="#000" fill-rule="nonzero" d="M77.138 455.189c-7.898.06-18.346-1.2-20.449-2.4-1.603-.93-2.24-4.253-2.455-5.789H54s.442 5.363 2.525 6.6c2.084 1.235 12.558 2.44 20.455 2.399 2.28 0 3.062-.786 3.018-1.926-.296.672-1.168 1.098-2.86 1.116z" opacity=".2"/>
        <path stroke="#032C3E" stroke-width="2.688" d="M649.383 442c3.342-6.175-.449-13.742-4.815-19.255-4.366-5.513-9.68-11.24-9.566-18.272.164-10.08 10.9-16.048 19.473-21.39a94.654 94.654 0 0 0 17.49-14.026c2.11-2.142 4.145-4.41 5.377-7.17 1.775-3.944 1.725-8.43 1.61-12.753A916.316 916.316 0 0 0 676.812 306"/>
        <path fill="#00BFA5" fill-rule="nonzero" d="M692.983 305.767a15.455 15.455 0 0 0-7.726-12.685l-3.465 6.857.105-8.301a15.5 15.5 0 0 0-16.592 24.429 15.5 15.5 0 0 0 27.678-10.3zM665.289 411.576a15.5 15.5 0 1 1 .744-12.461l-9.665 7.867 10.632-2.48a15.35 15.35 0 0 1-1.711 7.074zM657.274 380.988c-7.91.309-14.809-5.273-16.072-13.005-1.263-7.731 3.507-15.18 11.113-17.351l-.082 6.375 3.538-6.933h.044c5.757-.559 11.356 2.068 14.561 6.831a15.347 15.347 0 0 1 .752 15.926c-2.742 5.039-8.07 8.17-13.854 8.144v.013zM695.815 355.978c-6.792.348-13.066-3.516-15.633-9.628-2.567-6.112-.864-13.131 4.243-17.49 5.108-4.358 12.499-5.1 18.417-1.848l-2.817 7.496 5.8-5.4c3.112 2.755 4.967 6.599 5.156 10.682a14.757 14.757 0 0 1-.408 4.266c-1.634 6.72-7.652 11.582-14.758 11.922z"/>
        <path fill="#000" fill-rule="nonzero" d="M691.227 309.566c-3.608.396-7.116 1.523-10.743 1.75-3.627.227-7.599-.63-9.892-3.476-1.252-1.523-1.879-3.45-2.894-5.119a11.111 11.111 0 0 0-3.934-3.721 15.808 15.808 0 0 0 1.525 16.91 15.618 15.618 0 0 0 15.919 5.68c5.954-1.391 10.559-6.138 11.792-12.157-.595.026-1.184.07-1.773.133zM695.433 355.984c-5.503.244-10.734-2.357-13.79-6.854a15.19 15.19 0 0 1-1.15-15.13 11.5 11.5 0 0 1 3.146 3.087c1.12 1.66 1.793 3.574 3.145 5.093 2.44 2.828 6.623 3.747 10.41 3.58 3.786-.166 7.447-1.234 11.227-1.567.522-.044 1.05-.08 1.579-.093-1.607 6.71-7.553 11.56-14.567 11.884zM657.616 380.983c-5.502.253-10.745-2.322-13.851-6.802a15.433 15.433 0 0 1-1.39-15.181 12.769 12.769 0 0 1 3.347 3.177c1.232 1.714 2 3.684 3.442 5.26 2.68 2.933 7.176 3.971 11.227 3.877 3.925-.087 7.703-1.038 11.609-1.332-1.97 6.28-7.718 10.676-14.384 11.001zM665 411.752c-3.957 7.23-12.93 10.232-20.563 6.88-7.632-3.352-11.33-11.92-8.474-19.632a15.854 15.854 0 0 1 3.495 3.055c1.512 1.816 2.514 3.869 4.261 5.56 3.26 3.13 8.517 4.425 13.192 4.544 2.702.02 5.403-.116 8.089-.407z" opacity=".1"/>
        <path fill="#032C3E" fill-rule="nonzero" d="M626 435.582s12.36-.377 16.086-2.99c3.726-2.613 19.015-5.733 19.944-1.545.928 4.189 18.576 20.844 4.617 20.95-13.959.104-32.428-2.138-36.149-4.368-3.72-2.23-4.498-12.047-4.498-12.047z"/>
        <path fill="#000" fill-rule="nonzero" d="M666.902 450.505c-13.96.116-32.432-2.213-36.152-4.522-2.83-1.759-3.96-8.073-4.342-10.983H626s.778 10.164 4.499 12.473c3.72 2.31 22.198 4.638 36.152 4.523 4.035-.032 5.421-1.49 5.346-3.659-.558 1.33-2.096 2.15-5.095 2.168z" opacity=".2"/>
    </g>
</svg>
